<mxfile host="app.diagrams.net" modified="2023-04-02T16:09:35.116Z" agent="Mozilla/5.0 (Macintosh; Intel Mac OS X 10_15_7) AppleWebKit/537.36 (KHTML, like Gecko) Chrome/111.0.0.0 Safari/537.36" etag="fXMUEhHX7iCUyr5i1PLh" version="21.1.2" type="device">
  <diagram id="aZzCiTEgSDXypdaJf5oC" name="Page-1">
    <mxGraphModel dx="3565" dy="918" grid="1" gridSize="10" guides="1" tooltips="1" connect="1" arrows="1" fold="1" page="1" pageScale="1" pageWidth="827" pageHeight="1169" math="0" shadow="0">
      <root>
        <mxCell id="0" />
        <mxCell id="1" parent="0" />
        <mxCell id="qcJDbEwE1XpdXQrslt51-1" value="" style="rounded=1;whiteSpace=wrap;html=1;arcSize=25;imageHeight=24;" parent="1" vertex="1">
          <mxGeometry x="-2437.5" y="920" width="500" height="50" as="geometry" />
        </mxCell>
        <mxCell id="qcJDbEwE1XpdXQrslt51-26" value="" style="rounded=1;whiteSpace=wrap;html=1;arcSize=25;imageHeight=24;" parent="1" vertex="1">
          <mxGeometry x="-2440" y="860" width="500" height="50" as="geometry" />
        </mxCell>
        <mxCell id="qcJDbEwE1XpdXQrslt51-25" value="operating system" style="text;html=1;strokeColor=none;fillColor=none;align=center;verticalAlign=middle;whiteSpace=wrap;rounded=0;" parent="1" vertex="1">
          <mxGeometry x="-2430" y="920" width="110" height="30" as="geometry" />
        </mxCell>
        <mxCell id="qcJDbEwE1XpdXQrslt51-54" value="applications" style="text;html=1;strokeColor=none;fillColor=none;align=center;verticalAlign=middle;whiteSpace=wrap;rounded=0;" parent="1" vertex="1">
          <mxGeometry x="-2430" y="860" width="75" height="30" as="geometry" />
        </mxCell>
        <mxCell id="qEZxZb18fNbEGhvGFvHe-27" value="" style="rounded=1;whiteSpace=wrap;html=1;arcSize=25;imageHeight=24;" vertex="1" parent="1">
          <mxGeometry x="-2436.25" y="980" width="500" height="50" as="geometry" />
        </mxCell>
        <mxCell id="qEZxZb18fNbEGhvGFvHe-28" value="hardware and network" style="text;html=1;strokeColor=none;fillColor=none;align=center;verticalAlign=middle;whiteSpace=wrap;rounded=0;" vertex="1" parent="1">
          <mxGeometry x="-2430" y="980" width="150" height="30" as="geometry" />
        </mxCell>
      </root>
    </mxGraphModel>
  </diagram>
</mxfile>
